<svg width="314" height="404" viewBox="0 0 314 404" fill="none" xmlns="http://www.w3.org/2000/svg">
<path opacity="0.5" d="M147.016 124.652C174.399 108.671 197.036 123.607 201.041 158.094C201.737 164.059 197.21 171.941 191.681 175.163L102.352 227.329C96.8233 230.551 92.2959 227.938 92.9924 221.146C96.9975 182.086 119.678 140.632 147.016 124.652Z" fill="url(#paint0_linear)"/>
<path opacity="0.5" d="M116.5 79.8882C116.5 103.707 130.256 114.941 147.234 105.013C164.212 95.0851 177.968 67.7829 177.968 43.9642C177.968 20.1456 164.212 8.91115 147.234 18.8392C130.256 28.7673 116.5 56.0695 116.5 79.8882Z" fill="url(#paint1_linear)"/>
<path opacity="0.07" d="M129.429 110.369C156.811 94.3887 179.448 109.324 183.453 143.811C184.15 149.777 179.623 157.658 174.094 160.881L84.7648 213.047C79.2362 216.269 74.7088 213.656 75.4053 206.863C79.4103 167.804 102.047 126.35 129.429 110.369Z" fill="url(#paint2_linear)"/>
<path opacity="0.07" d="M98.9129 65.6059C98.9129 89.4246 112.669 100.659 129.647 90.7309C146.625 80.8029 160.381 53.5007 160.381 29.682C160.381 5.86333 146.625 -5.37107 129.647 4.557C112.669 14.4851 98.9129 41.7873 98.9129 65.6059Z" fill="url(#paint3_linear)"/>
<path opacity="0.2" d="M39.752 247.466C39.752 245.864 40.6065 244.384 41.9936 243.583L110.383 204.086C113.372 202.36 117.11 204.517 117.11 207.969V240.523L39.752 285.199V247.466Z" fill="url(#paint4_linear)"/>
<path d="M101.394 222.8C101.394 226.11 103.353 227.677 105.791 226.284C108.229 224.891 110.188 221.059 110.188 217.749C110.188 214.44 108.229 212.872 105.791 214.266C103.353 215.659 101.394 219.491 101.394 222.8Z" fill="#D73754"/>
<path opacity="0.15" d="M97.3023 221.363L74.0558 234.818V239.652L97.3458 226.197L97.3023 221.363Z" fill="#F8F8F8"/>
<path opacity="0.15" d="M97.3022 231.074L47.7621 259.682V264.603L97.3022 235.994V231.074Z" fill="#F8F8F8"/>
<path opacity="0.2" d="M196.905 200.875C196.905 199.272 197.76 197.792 199.148 196.991L267.538 157.532C270.527 155.808 274.263 157.965 274.263 161.416V193.974L196.905 238.651V200.875Z" fill="url(#paint5_linear)"/>
<path d="M258.547 176.208C258.547 179.518 260.506 181.085 262.944 179.692C265.382 178.298 267.341 174.466 267.341 171.157C267.341 167.848 265.382 166.28 262.944 167.674C260.506 169.067 258.547 172.899 258.547 176.208Z" fill="#FFAC42"/>
<path opacity="0.15" d="M254.586 174.989L240.568 183.088V188.008L254.586 179.909V174.989Z" fill="#F8F8F8"/>
<path opacity="0.15" d="M254.455 184.699L204.915 213.308V218.228L254.455 189.62V184.699Z" fill="#F8F8F8"/>
<path opacity="0.3" d="M147.056 250.646C147.058 247.193 143.32 245.034 140.329 246.761L2.72554 326.23C1.33923 327.031 0.484909 328.51 0.483994 330.111L0.44194 403.944L134.087 326.784L145.059 330.368C146.025 330.683 147.017 329.964 147.017 328.948L147.056 250.646Z" fill="url(#paint6_linear)"/>
<path d="M117.284 285.678C117.284 291.992 120.984 294.909 125.598 292.253C130.213 289.597 133.913 282.325 133.913 276.055C133.913 269.741 130.213 266.823 125.598 269.48C121.028 272.136 117.284 279.408 117.284 285.678Z" fill="#FFAC42"/>
<path opacity="0.15" d="M109.361 283.24L77.2337 301.79V308.495L109.361 289.946V283.24Z" fill="#F8F8F8"/>
<path opacity="0.15" d="M109.361 296.695L13.4148 352.083V358.789L109.361 303.401V296.695Z" fill="#F8F8F8"/>
<path opacity="0.15" d="M109.361 310.15L34.3541 353.476V360.182L109.361 316.856V310.15Z" fill="#F8F8F8"/>
<path opacity="0.3" d="M166.866 267.408C166.867 265.807 167.722 264.327 169.109 263.527L306.712 184.099C309.702 182.373 313.439 184.532 313.438 187.985L313.398 256.634L179.753 333.794L169.56 348.899C168.735 350.122 166.826 349.537 166.826 348.062L166.866 267.408Z" fill="url(#paint7_linear)"/>
<path d="M196.644 273.224C196.644 279.538 192.9 286.767 188.329 289.423C183.715 292.079 180.014 289.118 180.014 282.804C180.014 276.49 183.758 269.262 188.329 266.606C192.9 263.993 196.644 266.954 196.644 273.224Z" fill="#FF1F57"/>
<path opacity="0.15" d="M204.567 261.685L236.694 243.135V249.841L204.567 268.391V261.685Z" fill="#F8F8F8"/>
<path opacity="0.15" d="M204.523 275.097L300.469 219.709V226.415L204.567 281.803L204.523 275.097Z" fill="#F8F8F8"/>
<path opacity="0.15" d="M204.523 288.552L279.53 245.226V251.931L204.523 295.258V288.552Z" fill="#F8F8F8"/>
<path opacity="0.2" d="M252.409 312.414C249.797 313.895 247.708 317.553 247.708 320.601V333.882L238.914 338.933C236.302 340.413 234.213 344.071 234.213 347.076C234.213 350.08 236.302 351.299 238.914 349.819L247.708 344.724V358.005C247.708 361.01 249.797 362.229 252.409 360.748C255.021 359.268 257.111 355.61 257.111 352.606V339.325L265.904 334.274C268.516 332.793 270.606 329.135 270.606 326.131C270.606 323.126 268.516 321.907 265.904 323.388L257.111 328.439V315.158C257.154 312.11 255.021 310.89 252.409 312.414Z" fill="url(#paint8_linear)"/>
<path opacity="0.2" d="M63.2596 142.287L51.1576 166.062C49.5033 169.328 49.7645 172.594 51.767 173.378C53.7695 174.161 56.7297 172.115 58.384 168.849L58.5146 168.544V194.932C58.5146 197.937 60.6042 199.156 63.2161 197.675C65.8281 196.151 67.9176 192.537 67.9176 189.533V163.145L68.0482 163.275C69.7025 164.625 72.7062 163.232 74.6652 160.14C76.6677 157.049 76.9289 153.478 75.2747 152.128L63.2596 142.287Z" fill="url(#paint9_linear)"/>
<defs>
<linearGradient id="paint0_linear" x1="34.0596" y1="98.5912" x2="145.282" y2="179.703" gradientUnits="userSpaceOnUse">
<stop stop-color="white"/>
<stop offset="1" stop-color="white" stop-opacity="0"/>
</linearGradient>
<linearGradient id="paint1_linear" x1="90.7299" y1="20.7054" x2="201.952" y2="101.817" gradientUnits="userSpaceOnUse">
<stop stop-color="white"/>
<stop offset="1" stop-color="white" stop-opacity="0"/>
</linearGradient>
<linearGradient id="paint2_linear" x1="16.465" y1="84.304" x2="127.688" y2="165.416" gradientUnits="userSpaceOnUse">
<stop stop-color="white"/>
<stop offset="1" stop-color="white" stop-opacity="0"/>
</linearGradient>
<linearGradient id="paint3_linear" x1="73.1353" y1="6.41782" x2="184.357" y2="87.5294" gradientUnits="userSpaceOnUse">
<stop stop-color="white"/>
<stop offset="1" stop-color="white" stop-opacity="0"/>
</linearGradient>
<linearGradient id="paint4_linear" x1="69.7125" y1="227.584" x2="87.1691" y2="257.82" gradientUnits="userSpaceOnUse">
<stop stop-color="white"/>
<stop offset="1" stop-color="white" stop-opacity="0"/>
</linearGradient>
<linearGradient id="paint5_linear" x1="226.865" y1="180.998" x2="244.322" y2="211.234" gradientUnits="userSpaceOnUse">
<stop stop-color="white"/>
<stop offset="1" stop-color="white" stop-opacity="0"/>
</linearGradient>
<linearGradient id="paint6_linear" x1="84.1027" y1="245.362" x2="65.1413" y2="399.114" gradientUnits="userSpaceOnUse">
<stop stop-color="white"/>
<stop offset="1" stop-color="white" stop-opacity="0"/>
</linearGradient>
<linearGradient id="paint7_linear" x1="198.829" y1="234.218" x2="274.535" y2="293.479" gradientUnits="userSpaceOnUse">
<stop stop-color="white"/>
<stop offset="1" stop-color="white" stop-opacity="0"/>
</linearGradient>
<linearGradient id="paint8_linear" x1="243.331" y1="329.377" x2="266.128" y2="347.364" gradientUnits="userSpaceOnUse">
<stop stop-color="white"/>
<stop offset="1" stop-color="white" stop-opacity="0"/>
</linearGradient>
<linearGradient id="paint9_linear" x1="54.6571" y1="166.271" x2="76.74" y2="178.578" gradientUnits="userSpaceOnUse">
<stop stop-color="white"/>
<stop offset="1" stop-color="white" stop-opacity="0"/>
</linearGradient>
</defs>
</svg>
