<svg width="157" height="75" viewBox="0 0 157 75" fill="none" xmlns="http://www.w3.org/2000/svg">
<path d="M0.673828 18.7009H5.10693V39.8743H0.673828V18.7009Z" fill="#F6F6F6"/>
<path d="M23.0605 32.2553C23.0605 32.3124 23.032 32.7118 22.9753 33.4539H11.4094C11.6178 34.405 12.1103 35.1564 12.8871 35.7082C13.6638 36.2598 14.63 36.5356 15.7856 36.5356C16.5813 36.5356 17.2823 36.4214 17.8885 36.1932C18.5137 35.9459 19.0916 35.5655 19.622 35.0518L21.9805 37.6201C20.5409 39.2751 18.438 40.1026 15.672 40.1026C13.948 40.1026 12.4229 39.7696 11.0968 39.1038C9.77063 38.419 8.7476 37.4772 8.0277 36.2788C7.30778 35.0803 6.94784 33.7202 6.94784 32.1983C6.94784 30.6954 7.29832 29.3447 7.99928 28.1462C8.71918 26.9287 9.69484 25.9869 10.9263 25.3211C12.1766 24.6363 13.5691 24.2939 15.1036 24.2939C16.6003 24.2939 17.9548 24.6174 19.1673 25.2642C20.3797 25.9109 21.3269 26.843 22.009 28.0606C22.71 29.2591 23.0605 30.6573 23.0605 32.2553ZM15.132 27.6611C14.1279 27.6611 13.2849 27.9464 12.6029 28.5172C11.9209 29.0878 11.5041 29.8678 11.3525 30.857H18.8831C18.7315 29.8869 18.3148 29.1164 17.6327 28.5457C16.9507 27.9559 16.1171 27.6611 15.132 27.6611Z" fill="#F6F6F6"/>
<path d="M34.7359 39.1325C34.3003 39.4557 33.7603 39.7031 33.1163 39.8743C32.491 40.0265 31.8279 40.1026 31.1269 40.1026C29.3083 40.1026 27.8968 39.6365 26.8928 38.7043C25.9077 37.7722 25.415 36.4025 25.415 34.5953V28.2888H23.0565V24.8647H25.415V21.1265H29.8482V24.8647H33.6561V28.2888H29.8482V34.5382C29.8482 35.185 30.0092 35.689 30.3313 36.0506C30.6722 36.393 31.146 36.5642 31.7522 36.5642C32.4532 36.5642 33.0499 36.374 33.5424 35.9935L34.7359 39.1325Z" fill="#F6F6F6"/>
<path d="M55.6674 24.2939C57.5808 24.2939 59.0964 24.8647 60.2142 26.0061C61.3508 27.1285 61.9192 28.8215 61.9192 31.0854V39.8743H57.486V31.7702C57.486 30.5528 57.2302 29.6491 56.7188 29.0593C56.2262 28.4506 55.5157 28.1462 54.5874 28.1462C53.5455 28.1462 52.7214 28.4886 52.1152 29.1735C51.5089 29.8393 51.2059 30.8381 51.2059 32.1697V39.8743H46.7727V31.7702C46.7727 29.3541 45.8066 28.1462 43.8741 28.1462C42.8512 28.1462 42.0364 28.4886 41.4302 29.1735C40.824 29.8393 40.5209 30.8381 40.5209 32.1697V39.8743H36.0878V24.5222H40.3219V26.2914C40.8903 25.6445 41.5818 25.15 42.3965 24.8076C43.2299 24.4651 44.1393 24.2939 45.1245 24.2939C46.2044 24.2939 47.1799 24.5127 48.0515 24.9503C48.923 25.3687 49.624 25.9869 50.1544 26.8051C50.7795 26.0061 51.5657 25.3877 52.5131 24.9503C53.4792 24.5127 54.5306 24.2939 55.6674 24.2939Z" fill="#F6F6F6"/>
<path d="M79.8984 32.2553C79.8984 32.3124 79.8699 32.7118 79.8132 33.4539H68.2474C68.4557 34.405 68.9482 35.1564 69.725 35.7082C70.5018 36.2598 71.468 36.5356 72.6235 36.5356C73.4192 36.5356 74.1202 36.4214 74.7264 36.1932C75.3517 35.9459 75.9294 35.5655 76.46 35.0518L78.8185 37.6201C77.3788 39.2751 75.2759 40.1026 72.5098 40.1026C70.7859 40.1026 69.2609 39.7696 67.9347 39.1038C66.6086 38.419 65.5855 37.4772 64.8656 36.2788C64.1457 35.0803 63.7858 33.7202 63.7858 32.1983C63.7858 30.6954 64.1362 29.3447 64.8373 28.1462C65.5572 26.9287 66.5329 25.9869 67.7642 25.3211C69.0145 24.6363 70.407 24.2939 71.9416 24.2939C73.4383 24.2939 74.7927 24.6174 76.0053 25.2642C77.2177 25.9109 78.1649 26.843 78.847 28.0606C79.5479 29.2591 79.8984 30.6573 79.8984 32.2553ZM71.9699 27.6611C70.9659 27.6611 70.1228 27.9464 69.4409 28.5172C68.7588 29.0878 68.342 29.8678 68.1905 30.857H75.721C75.5695 29.8869 75.1528 29.1164 74.4707 28.5457C73.7887 27.9559 72.9551 27.6611 71.9699 27.6611Z" fill="#F6F6F6"/>
<path d="M105.818 24.5222L102.777 39.8743H98.5717L98.856 38.3619C97.5866 39.5223 96.0237 40.1026 94.167 40.1026C92.9735 40.1026 91.8746 39.8267 90.8706 39.2751C89.8666 38.7233 89.0615 37.9338 88.4551 36.9066C87.8678 35.8603 87.5742 34.6332 87.5742 33.2255C87.5742 31.5324 87.9437 30.0105 88.6825 28.6599C89.4402 27.2901 90.4633 26.2248 91.7516 25.4639C93.0398 24.6839 94.4607 24.2939 96.0141 24.2939C98.3633 24.2939 100.021 25.0644 100.987 26.6053L101.385 24.5222H105.818ZM95.5311 36.4214C96.4025 36.4214 97.1793 36.2122 97.8612 35.7937C98.5433 35.3561 99.0738 34.7569 99.4527 33.996C99.8315 33.235 100.021 32.36 100.021 31.3707C100.021 30.3244 99.7085 29.4969 99.0832 28.8881C98.477 28.2793 97.6245 27.9751 96.5257 27.9751C95.6542 27.9751 94.8775 28.1938 94.1955 28.6314C93.5134 29.0499 92.9829 29.6396 92.6042 30.4005C92.2252 31.1615 92.0358 32.0365 92.0358 33.0258C92.0358 34.0721 92.3388 34.8995 92.9451 35.5084C93.5702 36.1171 94.4322 36.4214 95.5311 36.4214Z" fill="url(#paint0_linear)"/>
<path d="M111.315 40.1026C109.989 40.1026 108.729 39.9599 107.535 39.6746C106.361 39.3702 105.442 38.9802 104.779 38.5046L106.484 35.2801C107.147 35.7177 107.952 36.0695 108.899 36.3359C109.866 36.6022 110.832 36.7354 111.798 36.7354C112.802 36.7354 113.55 36.6117 114.043 36.3645C114.536 36.0982 114.782 35.7271 114.782 35.2516C114.782 34.8711 114.564 34.5953 114.128 34.424C113.692 34.2529 112.991 34.0721 112.025 33.8818C110.927 33.6726 110.017 33.4442 109.297 33.197C108.596 32.9497 107.981 32.5502 107.45 31.9986C106.939 31.4278 106.683 30.6573 106.683 29.6872C106.683 27.994 107.384 26.6719 108.786 25.7206C110.207 24.7695 112.063 24.2939 114.356 24.2939C115.416 24.2939 116.449 24.4081 117.453 24.6363C118.457 24.8647 119.31 25.1785 120.011 25.578L118.419 28.8311C117.169 28.0511 115.663 27.6611 113.901 27.6611C112.935 27.6611 112.196 27.8038 111.684 28.0891C111.192 28.3745 110.945 28.7359 110.945 29.1735C110.945 29.573 111.163 29.8678 111.599 30.0581C112.035 30.2293 112.764 30.4196 113.787 30.6288C114.867 30.8381 115.748 31.0663 116.43 31.3136C117.131 31.542 117.737 31.932 118.249 32.4836C118.76 33.0353 119.016 33.7868 119.016 34.7379C119.016 36.4501 118.296 37.7722 116.856 38.7043C115.435 39.6365 113.588 40.1026 111.315 40.1026Z" fill="url(#paint1_linear)"/>
<path d="M131.1 31.1994L136.358 39.8743H131.214L127.577 33.9103L124.877 36.1648L124.138 39.8743H119.705L123.911 18.7009H128.344L125.985 30.5431L133.317 24.5222H139.086L131.1 31.1994Z" fill="url(#paint2_linear)"/>
<path fill-rule="evenodd" clip-rule="evenodd" d="M86.7216 4.91827C84.7597 4.91827 83.1693 6.51527 83.1693 8.4852V15.6191H78.9067V8.4852C78.9067 4.15125 82.4056 0.637939 86.7216 0.637939H147.819C152.135 0.637939 155.633 4.15143 155.633 8.4852V48.435C155.633 52.7686 152.135 56.2822 147.819 56.2822H140.509L143.281 69.27C144.007 72.6735 139.945 74.9996 137.398 72.6384L122.831 59.1357H86.7216C82.4056 59.1357 78.9067 55.6225 78.9067 51.2885V48.435H83.1693V51.2885C83.1693 53.2584 84.7597 54.8554 86.7216 54.8554H124.497L138.643 67.9676L135.236 52.0019H147.819C149.78 52.0019 151.371 50.405 151.371 48.435V8.4852C151.371 6.51509 149.78 4.91827 147.819 4.91827H86.7216Z" fill="url(#paint3_linear)"/>
<defs>
<linearGradient id="paint0_linear" x1="87.5744" y1="18.7009" x2="99.6349" y2="52.6187" gradientUnits="userSpaceOnUse">
<stop stop-color="#FFAC42"/>
<stop offset="1" stop-color="#FF59F8"/>
</linearGradient>
<linearGradient id="paint1_linear" x1="87.5744" y1="18.7009" x2="99.6349" y2="52.6187" gradientUnits="userSpaceOnUse">
<stop stop-color="#FFAC42"/>
<stop offset="1" stop-color="#FF59F8"/>
</linearGradient>
<linearGradient id="paint2_linear" x1="87.5744" y1="18.7009" x2="99.6349" y2="52.6187" gradientUnits="userSpaceOnUse">
<stop stop-color="#FFAC42"/>
<stop offset="1" stop-color="#FF59F8"/>
</linearGradient>
<linearGradient id="paint3_linear" x1="81.038" y1="2.7781" x2="141.015" y2="76.7271" gradientUnits="userSpaceOnUse">
<stop stop-color="#FFAC42"/>
<stop offset="1" stop-color="#FF59F8"/>
</linearGradient>
</defs>
</svg>
